<svg width="20" height="19" viewBox="0 0 20 19" fill="none" xmlns="http://www.w3.org/2000/svg">
<path d="M10 1.5835C7.7025 1.5835 5.83333 3.3592 5.83333 5.54183C5.83333 7.72445 7.7025 9.50016 10 9.50016C12.2975 9.50016 14.1667 7.72445 14.1667 5.54183C14.1667 3.3592 12.2975 1.5835 10 1.5835ZM10 7.91683C8.62167 7.91683 7.5 6.85125 7.5 5.54183C7.5 4.23241 8.62167 3.16683 10 3.16683C11.3783 3.16683 12.5 4.23241 12.5 5.54183C12.5 6.85125 11.3783 7.91683 10 7.91683ZM17.5 16.6252V15.8335C17.5 12.7785 14.8825 10.2918 11.6667 10.2918H8.33333C5.11667 10.2918 2.5 12.7785 2.5 15.8335V16.6252H4.16667V15.8335C4.16667 13.6509 6.03583 11.8752 8.33333 11.8752H11.6667C13.9642 11.8752 15.8333 13.6509 15.8333 15.8335V16.6252H17.5Z" fill="white"/>
</svg>
