<svg width="32" height="32" viewBox="0 0 32 32" fill="none" xmlns="http://www.w3.org/2000/svg">
<path fill-rule="evenodd" clip-rule="evenodd" d="M4 2H28C28.5304 2 29.0391 2.21071 29.4142 2.58579C29.7893 2.96086 30 3.46957 30 4V27.172L26 23.172C25.25 22.4218 24.2328 22.0002 23.172 22H4C3.46957 22 2.96086 21.7893 2.58579 21.4142C2.21071 21.0391 2 20.5304 2 20V4C2 3.46957 2.21071 2.96086 2.58579 2.58579C2.96086 2.21071 3.46957 2 4 2V2ZM28 0C29.0609 0 30.0783 0.421427 30.8284 1.17157C31.5786 1.92172 32 2.93913 32 4V29.586C32 29.7839 31.9412 29.9773 31.8312 30.1418C31.7212 30.3062 31.5649 30.4344 31.382 30.5099C31.1991 30.5855 30.998 30.6052 30.8039 30.5664C30.6099 30.5276 30.4317 30.4321 30.292 30.292L24.586 24.586C24.211 24.2109 23.7024 24.0001 23.172 24H4C2.93913 24 1.92172 23.5786 1.17157 22.8284C0.421427 22.0783 0 21.0609 0 20V4C0 2.93913 0.421427 1.92172 1.17157 1.17157C1.92172 0.421427 2.93913 0 4 0L28 0Z" fill="white"/>
<path fill-rule="evenodd" clip-rule="evenodd" d="M6 7C6 6.73478 6.10536 6.48043 6.29289 6.29289C6.48043 6.10536 6.73478 6 7 6H25C25.2652 6 25.5196 6.10536 25.7071 6.29289C25.8946 6.48043 26 6.73478 26 7C26 7.26522 25.8946 7.51957 25.7071 7.70711C25.5196 7.89464 25.2652 8 25 8H7C6.73478 8 6.48043 7.89464 6.29289 7.70711C6.10536 7.51957 6 7.26522 6 7ZM6 12C6 11.7348 6.10536 11.4804 6.29289 11.2929C6.48043 11.1054 6.73478 11 7 11H25C25.2652 11 25.5196 11.1054 25.7071 11.2929C25.8946 11.4804 26 11.7348 26 12C26 12.2652 25.8946 12.5196 25.7071 12.7071C25.5196 12.8946 25.2652 13 25 13H7C6.73478 13 6.48043 12.8946 6.29289 12.7071C6.10536 12.5196 6 12.2652 6 12ZM6 17C6 16.7348 6.10536 16.4804 6.29289 16.2929C6.48043 16.1054 6.73478 16 7 16H17C17.2652 16 17.5196 16.1054 17.7071 16.2929C17.8946 16.4804 18 16.7348 18 17C18 17.2652 17.8946 17.5196 17.7071 17.7071C17.5196 17.8946 17.2652 18 17 18H7C6.73478 18 6.48043 17.8946 6.29289 17.7071C6.10536 17.5196 6 17.2652 6 17Z" fill="white"/>
</svg>
