<svg width="22" height="23" viewBox="0 0 22 23" fill="none" xmlns="http://www.w3.org/2000/svg">
<path d="M19.25 4.18848H2.75C2.38533 4.18848 2.03559 4.33334 1.77773 4.5912C1.51987 4.84907 1.375 5.1988 1.375 5.56348V16.5635C1.375 16.9281 1.51987 17.2779 1.77773 17.5357C2.03559 17.7936 2.38533 17.9385 2.75 17.9385H19.25C19.6147 17.9385 19.9644 17.7936 20.2223 17.5357C20.4801 17.2779 20.625 16.9281 20.625 16.5635V5.56348C20.625 5.1988 20.4801 4.84907 20.2223 4.5912C19.9644 4.33334 19.6147 4.18848 19.25 4.18848ZM17.7375 5.56348L11 10.2247L4.2625 5.56348H17.7375ZM2.75 16.5635V6.1891L10.6081 11.6272C10.7232 11.7071 10.8599 11.7498 11 11.7498C11.1401 11.7498 11.2768 11.7071 11.3919 11.6272L19.25 6.1891V16.5635H2.75Z" fill="white"/>
</svg>
