<svg width="18" height="17" viewBox="0 0 18 17" fill="none" xmlns="http://www.w3.org/2000/svg">
<path d="M7.61012 9.74642C8.65386 10.7464 9.91676 11.5185 11.3101 12.0084L13.1951 10.5917C13.251 10.5554 13.3173 10.5359 13.3851 10.5359C13.453 10.5359 13.5192 10.5554 13.5751 10.5917L17.0751 12.7214C17.208 12.7969 17.3205 12.9005 17.4037 13.024C17.4869 13.1476 17.5385 13.2877 17.5545 13.4334C17.5705 13.579 17.5504 13.7262 17.4959 13.8632C17.4413 14.0003 17.3538 14.1235 17.2401 14.2231L15.6001 15.7531C15.3653 15.9723 15.0766 16.1331 14.7599 16.2213C14.4432 16.3094 14.1083 16.3222 13.7851 16.2584C10.5612 15.6295 7.58969 14.1567 5.21012 12.0084C2.88336 9.83862 1.27326 7.07782 0.575119 4.06087C0.506152 3.76036 0.520547 3.44813 0.616907 3.15442C0.713268 2.86072 0.888327 2.5955 1.12512 2.38448L2.82512 0.835588C2.93032 0.733488 3.05861 0.655187 3.20039 0.60655C3.34217 0.557912 3.49377 0.540198 3.64382 0.554733C3.79388 0.569269 3.93851 0.615677 4.06689 0.690484C4.19526 0.76529 4.30406 0.866556 4.38512 0.986699L6.71512 4.24975C6.75531 4.30099 6.777 4.36307 6.777 4.42684C6.777 4.4906 6.75531 4.55268 6.71512 4.60392L5.18012 6.34642C5.71291 7.63603 6.54299 8.79745 7.61012 9.74642Z" fill="white"/>
</svg>
